<?xml version="1.0" standalone="no"?><!DOCTYPE svg PUBLIC "-//W3C//DTD SVG 1.1//EN" "http://www.w3.org/Graphics/SVG/1.1/DTD/svg11.dtd"><svg t="1484551455537" class="icon" style="" viewBox="0 0 1024 1024" version="1.1" xmlns="http://www.w3.org/2000/svg" p-id="1015" xmlns:xlink="http://www.w3.org/1999/xlink" width="200" height="200"><defs><style type="text/css"></style></defs><path d="M513.088 64L127.744 212.608S129.088 463.744 128 575.36c-1.344 129.664 155.072 347.52 373.824 382.848l10.176 1.6 10.176-1.6C739.072 923.2 896 705.6 896 576V212.608L513.088 64zM832 576c0 93.184-128 288-320 318.976C320 864 191.04 669.12 192 576c1.152-112 0-320 0-320l321.024-126.976L832 256v320z" p-id="1016"></path><path d="M694.336 357.504L468.096 583.744 332.288 448l-45.248 45.248 135.808 135.744 45.248 45.248 45.248-45.248 226.24-226.24z" p-id="1017"></path></svg>