<?xml version="1.0" standalone="no"?><!DOCTYPE svg PUBLIC "-//W3C//DTD SVG 1.1//EN" "http://www.w3.org/Graphics/SVG/1.1/DTD/svg11.dtd"><svg t="1484553847833" class="icon" style="" viewBox="0 0 1024 1024" version="1.1" xmlns="http://www.w3.org/2000/svg" p-id="7173" xmlns:xlink="http://www.w3.org/1999/xlink" width="200" height="200"><defs><style type="text/css"></style></defs><path d="M512 387.129c63.243 0 114.695-51.453 114.695-114.693s-51.453-114.693-114.695-114.693c-63.243 0-114.693 51.453-114.693 114.693s51.452 114.693 114.693 114.693zM512 212.26c33.18 0 60.175 26.994 60.175 60.174s-26.995 60.174-60.175 60.174-60.174-26.994-60.174-60.174 26.994-60.174 60.174-60.174zM626.693 752.599c0-63.242-51.453-114.693-114.695-114.693s-114.693 51.453-114.693 114.693c0 63.243 51.453 114.695 114.693 114.695 63.244 0 114.695-51.453 114.695-114.695zM451.826 752.599c0-33.18 26.994-60.174 60.174-60.174s60.175 26.994 60.175 60.174-26.995 60.175-60.175 60.175-60.174-26.995-60.174-60.175zM751.565 624.834c63.243 0 114.695-51.453 114.695-114.693s-51.453-114.693-114.695-114.693-114.695 51.452-114.695 114.693 51.453 114.693 114.695 114.693zM751.565 449.965c33.18 0 60.175 26.994 60.175 60.174 0 33.179-26.995 60.174-60.175 60.174s-60.175-26.995-60.175-60.174c0-33.18 26.995-60.174 60.175-60.174zM271.4 400.199c-63.243 0-114.693 51.453-114.693 114.693s51.453 114.693 114.693 114.693 114.693-51.453 114.693-114.693-51.452-114.693-114.693-114.693zM271.4 575.068c-33.18 0-60.174-26.995-60.174-60.174s26.994-60.174 60.174-60.174 60.174 26.994 60.174 60.174c0 33.179-26.994 60.174-60.174 60.174zM977.901 960.151h-237.972c47.032-23.922 89.809-55.006 127.512-92.71 46.155-46.155 82.395-99.911 107.714-159.771 26.219-61.99 39.514-127.822 39.514-195.671 0-67.848-13.293-133.681-39.514-195.671-25.318-59.86-61.56-113.615-107.714-159.771-46.156-46.156-99.912-82.396-159.772-107.715-61.99-26.218-127.822-39.514-195.67-39.514s-133.681 13.293-195.671 39.514c-59.86 25.318-113.615 61.561-159.772 107.715-46.155 46.156-82.395 99.911-107.715 159.771-26.218 61.99-39.514 127.822-39.514 195.671 0 67.848 13.293 133.681 39.514 195.671 25.318 59.86 61.561 113.615 107.715 159.771 46.156 46.156 99.911 82.396 159.772 107.715 61.99 26.219 127.822 39.514 195.671 39.514 2.579 0 5.154-0.027 7.727-0.064 0.589 0.038 1.182 0.064 1.781 0.064h456.395c15.057 0 27.26-12.204 27.26-27.26s-12.206-27.26-27.262-27.26zM195.11 828.89c-41.165-41.166-73.484-89.096-96.054-142.459-23.361-55.233-35.207-113.921-35.207-174.432s11.845-119.2 35.207-174.432c22.569-53.362 54.887-101.291 96.054-142.458 41.166-41.166 89.095-73.484 142.459-96.054 55.233-23.361 113.921-35.207 174.432-35.207 60.511 0 119.199 11.845 174.432 35.207 53.362 22.569 101.292 54.887 142.459 96.054 41.165 41.165 73.484 89.095 96.054 142.458 23.361 55.233 35.207 113.921 35.207 174.432s-11.845 119.2-35.207 174.432c-22.569 53.362-54.888 101.292-96.054 142.459-41.166 41.165-89.096 73.484-142.459 96.054-55.233 23.361-113.921 35.207-174.432 35.207-60.512 0-119.2-11.845-174.432-35.207-53.363-22.569-101.291-54.888-142.459-96.054z" p-id="7174" fill="#595959"></path></svg>