<?xml version="1.0" standalone="no"?><!DOCTYPE svg PUBLIC "-//W3C//DTD SVG 1.1//EN" "http://www.w3.org/Graphics/SVG/1.1/DTD/svg11.dtd"><svg t="1484556784551" class="icon" style="" viewBox="0 0 1024 1024" version="1.1" xmlns="http://www.w3.org/2000/svg" p-id="8906" xmlns:xlink="http://www.w3.org/1999/xlink" width="200" height="200"><defs><style type="text/css"></style></defs><path d="M928.298667 277.568l-76.074667-146.389333c-18.794667-36.074667-65.365333-64.341333-106.048-64.341334H278.421333c-40.597333 0-87.338667 28.096-106.304 63.914667l-76.010666 143.402667c-16.405333 31.04-29.226667 82.752-29.226667 117.802666v481.749334a83.52 83.52 0 0 0 83.477333 83.456h723.328a83.541333 83.541333 0 0 0 83.456-83.456V395.392c-0.021333-35.008-12.672-86.784-28.842666-117.824z m-782.954667 22.613333l75.968-143.36c9.514667-17.92 36.736-34.346667 57.109333-34.346666h467.776c20.266667 0 47.274667 16.426667 56.682667 34.389333l76.053333 146.346667c3.605333 6.954667 6.954667 15.872 10.069334 25.429333H134.186667c3.370667-10.688 7.061333-20.8 11.157333-28.458667z m756.16 573.525334c0 15.317333-12.458667 27.818667-27.84 27.818666H150.336a27.84 27.84 0 0 1-27.818667-27.818666V391.957333c0-2.218667 0.426667-5.162667 0.64-7.658666h777.408c0.341333 3.690667 0.938667 7.829333 0.938667 11.093333v478.314667z" fill="#595959" p-id="8907"></path><path d="M745.92 537.536l-140.16 149.717333-56.533333-56.448a27.818667 27.818667 0 1 0-39.36 39.338667l76.288 76.074667c5.44 5.44 12.501333 8.170667 19.626666 8.170666 3.861333 0 7.637333-1.002667 11.306667-2.624 4.053333-1.408 7.872-3.584 11.029333-6.890666l158.464-169.28a27.861333 27.861333 0 0 0-40.661333-38.058667zM429.034667 578.197333h-166.997334a27.84 27.84 0 0 0 0 55.658667h166.997334a27.818667 27.818667 0 1 0 0-55.658667zM344.597333 696.874667H261.12a27.84 27.84 0 0 0 0 55.637333h83.477333a27.818667 27.818667 0 0 0 0-55.637333z" fill="#595959" p-id="8908"></path></svg>