<?xml version="1.0" standalone="no"?><!DOCTYPE svg PUBLIC "-//W3C//DTD SVG 1.1//EN" "http://www.w3.org/Graphics/SVG/1.1/DTD/svg11.dtd"><svg t="1484556697184" class="icon" style="" viewBox="0 0 1024 1024" version="1.1" xmlns="http://www.w3.org/2000/svg" p-id="8159" xmlns:xlink="http://www.w3.org/1999/xlink" width="200" height="200"><defs><style type="text/css"></style></defs><path d="M731.263499 650.716406c-49.817824 0-91.851325 40.476757-91.851325 91.851325 0 49.817824 40.476757 91.851525 91.851325 91.851525 49.817824 0 91.851525-40.476757 91.851525-91.851525C821.55808 692.750107 781.081323 650.716406 731.263499 650.716406L731.263499 650.716406zM731.263499 787.715121c-24.908912 0-45.14739-20.238478-45.14739-45.14739 0-24.908912 20.238478-45.14739 45.14739-45.14739 24.908912 0 45.14739 20.238478 45.14739 45.14739C774.853945 767.476643 754.615467 787.715121 731.263499 787.715121L731.263499 787.715121zM972.568095 694.306852c-3.113689-18.681534-15.568045-29.579345-29.579345-29.579345l-1.556944 0c-28.022401 0-51.374368-23.351967-51.374368-51.374568 0-7.784122 3.113689-17.124789 4.670433-20.238478 7.784122-15.568045 1.556745-35.806523-14.0113-46.704135l-60.715435-34.249779c-4.670433-1.556745-9.340867-3.113689-15.568045-3.113689-10.897611 0-21.795223 4.670433-29.579345 12.454356-7.783923 9.340867-28.022401 24.908912-42.033701 24.908912s-34.249779-17.124789-42.033701-24.908912c-7.784122-7.783923-18.681734-12.454356-29.579345-12.454356-4.670433 0-10.897611 1.556745-15.568045 3.113689l-1.556745 0-62.272179 34.249779-1.556745 1.556745c-14.0113 9.340867-20.238478 29.579345-12.454356 45.14739 0 1.556745 4.670433 10.897611 4.670433 20.238478 0 28.022401-23.351967 51.374568-51.374568 51.374568l-3.113689 0c-14.0113 0-26.465656 12.454356-29.579345 29.579345 0 3.113689-4.670433 28.022401-4.670433 48.260879s4.670433 45.14739 4.670433 48.260879c3.113689 18.681734 15.568045 29.579345 29.579345 29.579345L519.538249 820.407955c28.022401 0 51.374568 23.351967 51.374568 51.374368 0 7.784122-3.113689 17.124789-4.670433 20.238478-7.784122 15.568045-1.556745 35.806523 14.0113 46.704135l59.158491 32.692834c4.670433 1.556944 9.340867 3.113689 15.568045 3.113689 10.897611 0 21.795223-4.670433 29.579345-12.454356 7.783923-7.784122 28.022401-24.908912 42.033701-24.908912s34.249779 17.124789 42.033701 26.465656c7.784122 7.783923 18.681734 12.454356 29.579345 12.454356 4.670433 0 10.897611-1.556745 17.124789-3.113689l60.715435-32.692834 1.556745-1.556745c14.0113-9.340667 20.238478-29.579345 12.454356-45.14739 0-1.556745-4.670433-10.897611-4.670433-20.238478 0-28.022401 23.351967-51.374568 51.374368-51.374568l3.113689 0c14.0113 0 26.465656-12.454356 29.579345-29.579345 0 0 4.670433-26.465656 4.670433-48.260879C977.238328 722.329253 972.568095 697.420541 972.568095 694.306852L972.568095 694.306852zM918.079838 773.703821c-46.704135 6.227178-80.953713 45.14739-80.953713 93.408069 0 10.897611 3.113689 21.795223 4.670433 28.022601l-40.476757 23.351967c-3.113689-3.113689-9.340867-9.340867-17.124789-14.0113-18.681734-15.568045-37.363268-21.795223-52.931313-21.795223-17.124789 0-34.249779 6.227178-51.374568 20.238478-7.784122 4.670433-12.454356 10.897611-17.124789 14.0113l-40.476957-21.795223c1.556745-7.783923 4.670433-17.124789 4.670433-28.022401 0-46.704135-35.806523-87.180891-80.953713-93.408269-1.556745-7.783923-3.113689-20.238478-3.113689-29.579345 0-9.340867 1.556745-21.795223 3.113689-29.579345 46.704135-6.227178 80.953713-45.14739 80.953713-93.408269 0-10.897611-3.113689-21.795223-4.670433-28.022401l42.033701-23.352167c3.113689 3.113689 9.340867 9.340867 17.124789 14.0113 17.124789 12.454356 34.249779 18.681734 51.374568 18.681734 15.568045 0 32.692834-6.227178 51.374568-18.681734 7.784122-4.670433 12.454356-9.340867 17.124789-14.0113l40.476757 23.352167c-1.556745 7.783923-4.670433 17.124789-4.670433 28.022401 0 46.704135 35.806523 87.180891 80.953713 93.408269 1.556745 7.784122 3.113689 20.238478 3.113689 29.579345C919.636782 753.465342 918.079838 765.919898 918.079838 773.703821L918.079838 773.703821zM110.099049 909.145791l0-51.374368c0-175.918727 135.44197-322.258309 309.803753-337.826354l0 0 0 0c10.897611-1.556745 21.795223-1.556745 32.692834-1.556745 1.556944 0 3.113689 0 4.670433 0 38.920012-3.113689 96.521758-12.454356 126.101103-38.920012l15.568045-10.897611c57.601746-45.14739 91.851525-112.089803 91.851525-185.259594 0-130.771537-105.862625-235.077218-238.190907-235.077218-130.771537 0-238.190907 105.862625-238.190907 235.077218 0 73.169791 32.692834 140.112204 91.851325 185.259594l15.568045 10.897611-17.124789 6.227178C149.019061 546.410526 49.383614 692.750107 49.383614 857.771223l0 82.510658c0 17.124789 14.0113 29.579345 31.13609 29.579345l446.802468 0c-14.0113-18.681734-26.465656-38.920012-37.363268-60.715435L110.099049 909.145791 110.099049 909.145791 110.099049 909.145791zM275.120165 281.753963c0-96.521758 79.396969-174.361983 175.918727-174.361983s175.918727 77.840224 175.918727 174.361983-79.396969 174.361983-175.918727 174.361983C354.517133 457.67289 275.120165 378.275921 275.120165 281.753963L275.120165 281.753963z" p-id="8160" fill="#595959"></path></svg>